<?xml version="1.0" encoding="UTF-8" standalone="no"?>
<!-- Created with Inkscape (http://www.inkscape.org/) -->

<svg
   width="89.263817mm"
   height="48.406376mm"
   viewBox="0 0 89.26382 48.406378"
   version="1.1"
   id="svg1"
   inkscape:version="1.4.2 (f4327f4, 2025-05-13)"
   sodipodi:docname="title_path.svg"
   xmlns:inkscape="http://www.inkscape.org/namespaces/inkscape"
   xmlns:sodipodi="http://sodipodi.sourceforge.net/DTD/sodipodi-0.dtd"
   xmlns="http://www.w3.org/2000/svg"
   xmlns:svg="http://www.w3.org/2000/svg">
  <sodipodi:namedview
     id="namedview1"
     pagecolor="#ffffff"
     bordercolor="#000000"
     borderopacity="0.25"
     inkscape:showpageshadow="2"
     inkscape:pageopacity="0.0"
     inkscape:pagecheckerboard="0"
     inkscape:deskcolor="#d1d1d1"
     inkscape:document-units="mm"
     inkscape:zoom="1.4378367"
     inkscape:cx="111.62603"
     inkscape:cy="97.020753"
     inkscape:window-width="1918"
     inkscape:window-height="849"
     inkscape:window-x="-8"
     inkscape:window-y="-8"
     inkscape:window-maximized="1"
     inkscape:current-layer="layer1"
     inkscape:clip-to-page="false" />
  <defs
     id="defs1" />
  <g
     inkscape:label="Layer 1"
     inkscape:groupmode="layer"
     id="layer1"
     transform="translate(-498.34895,-115.72823)">
    <g
       id="g10"
       transform="translate(391.49048)">
      <text
         xml:space="preserve"
         style="font-size:29.9342px;font-family:Arial;-inkscape-font-specification:Arial;text-align:start;writing-mode:lr-tb;direction:ltr;text-anchor:start;fill:#043052;fill-opacity:1;stroke:#b5cfe2;stroke-width:0.488;stroke-linejoin:round;stroke-dasharray:none;stroke-opacity:1"
         x="133.3754"
         y="139.51949"
         id="text1"
         transform="scale(0.9987345,1.0012671)"><tspan
           sodipodi:role="line"
           id="tspan1"
           style="fill:#043052;fill-opacity:1;stroke:#b5cfe2;stroke-width:0.488;stroke-dasharray:none;stroke-opacity:1"
           x="133.3754"
           y="139.51949">{  }</tspan></text>
      <g
         id="g1"
         transform="matrix(0.41213598,0,0,0.41213598,107.36304,98.728608)">
        <path
           style="fill:none;fill-opacity:1;stroke:#90b6d4;stroke-width:3.406;stroke-linejoin:round;stroke-dasharray:none;stroke-opacity:1"
           d="m 101.60672,48.970459 v 13.563927 l 12.67525,13.797789"
           id="path3"
           sodipodi:nodetypes="ccc" />
        <path
           style="fill:none;fill-opacity:1;stroke:#91b6d4;stroke-width:3.406;stroke-linejoin:round;stroke-dasharray:none;stroke-opacity:1"
           d="m 105.62912,66.837426 8.46577,-8.418989"
           id="path4"
           sodipodi:nodetypes="cc" />
        <path
           style="fill:none;fill-opacity:1;stroke:#2b506d;stroke-width:3.406;stroke-linejoin:miter;stroke-dasharray:none;stroke-opacity:1"
           d="M 129.49454,76.222543 93.731904,76.173819 86.458926,67.45677"
           id="path2"
           sodipodi:nodetypes="ccc" />
        <path
           id="path1"
           style="fill:#39444c;fill-opacity:1;stroke-width:0.264999;stroke-linejoin:round"
           d="m 101.55962,41.247611 a 4.4890766,4.4890766 0 0 0 -4.489128,4.489132 4.4890766,4.4890766 0 0 0 4.489128,4.488615 4.4890766,4.4890766 0 0 0 4.48913,-4.488615 4.4890766,4.4890766 0 0 0 -4.48913,-4.489132 z m 0,2.13062 a 2.3583918,2.3583918 0 0 1 2.35851,2.358512 2.3583918,2.3583918 0 0 1 -2.35851,2.357996 2.3583918,2.3583918 0 0 1 -2.358512,-2.357996 2.3583918,2.3583918 0 0 1 2.358512,-2.358512 z" />
        <path
           id="path1-5"
           style="fill:#39444c;fill-opacity:1;stroke-width:0.264999;stroke-linejoin:round"
           d="m 115.62623,52.109744 a 4.4890766,4.4890766 0 0 0 -4.48913,4.489132 4.4890766,4.4890766 0 0 0 4.48913,4.488615 4.4890766,4.4890766 0 0 0 4.48914,-4.488615 4.4890766,4.4890766 0 0 0 -4.48914,-4.489132 z m 0,2.13062 a 2.3583918,2.3583918 0 0 1 2.35851,2.358512 2.3583918,2.3583918 0 0 1 -2.35851,2.357996 2.3583918,2.3583918 0 0 1 -2.35851,-2.357996 2.3583918,2.3583918 0 0 1 2.35851,-2.358512 z" />
        <path
           id="path1-5-1-3"
           style="fill:#39444c;fill-opacity:1;stroke-width:0.264999;stroke-linejoin:round"
           d="m 84.955536,61.127018 a 4.4890766,4.4890766 0 0 0 -4.48913,4.489132 4.4890766,4.4890766 0 0 0 4.48913,4.488615 4.4890766,4.4890766 0 0 0 4.48914,-4.488615 4.4890766,4.4890766 0 0 0 -4.48914,-4.489132 z m 0,2.13062 a 2.3583918,2.3583918 0 0 1 2.35851,2.358512 2.3583918,2.3583918 0 0 1 -2.35851,2.357996 2.3583918,2.3583918 0 0 1 -2.35851,-2.357996 2.3583918,2.3583918 0 0 1 2.35851,-2.358512 z" />
        <path
           style="fill:none;fill-opacity:1;stroke:#75a3c9;stroke-width:3.406;stroke-linejoin:round;stroke-dasharray:none;stroke-opacity:1"
           d="M 114.19958,112.19576 V 98.631834 L 101.52433,84.834045"
           id="path3-5"
           sodipodi:nodetypes="ccc" />
        <path
           style="fill:none;fill-opacity:1;stroke:#75a3c9;stroke-width:3.406;stroke-linejoin:round;stroke-dasharray:none;stroke-opacity:1"
           d="m 110.17718,94.328794 -8.46577,8.418986"
           id="path4-9"
           sodipodi:nodetypes="cc" />
        <path
           style="fill:none;fill-opacity:1;stroke:#2b506d;stroke-width:3.406;stroke-linejoin:miter;stroke-dasharray:none;stroke-opacity:1"
           d="M 129.49282,84.943677 93.730188,84.992401 86.45721,93.70945"
           id="path2-0"
           sodipodi:nodetypes="ccc" />
        <path
           id="path1-0"
           style="fill:#39444c;fill-opacity:1;stroke-width:0.264999;stroke-linejoin:round"
           d="m 114.24668,119.91861 a 4.4890766,4.4890766 0 0 0 4.48913,-4.48913 4.4890766,4.4890766 0 0 0 -4.48913,-4.48862 4.4890766,4.4890766 0 0 0 -4.48913,4.48862 4.4890766,4.4890766 0 0 0 4.48913,4.48913 z m 0,-2.13062 a 2.3583918,2.3583918 0 0 1 -2.35851,-2.35851 2.3583918,2.3583918 0 0 1 2.35851,-2.358 2.3583918,2.3583918 0 0 1 2.35851,2.358 2.3583918,2.3583918 0 0 1 -2.35851,2.35851 z" />
        <path
           id="path1-5-6"
           style="fill:#39444c;fill-opacity:1;stroke-width:0.264999;stroke-linejoin:round"
           d="m 100.18007,109.05648 a 4.4890766,4.4890766 0 0 0 4.48913,-4.48914 4.4890766,4.4890766 0 0 0 -4.48913,-4.48861 4.4890766,4.4890766 0 0 0 -4.489137,4.48861 4.4890766,4.4890766 0 0 0 4.489137,4.48914 z m 0,-2.13062 a 2.3583918,2.3583918 0 0 1 -2.358507,-2.35852 2.3583918,2.3583918 0 0 1 2.358507,-2.35799 2.3583918,2.3583918 0 0 1 2.35851,2.35799 2.3583918,2.3583918 0 0 1 -2.35851,2.35852 z" />
        <path
           id="path1-5-1-3-1"
           style="fill:#39444c;fill-opacity:1;stroke-width:0.264999;stroke-linejoin:round"
           d="m 84.95382,100.0392 a 4.4890766,4.4890766 0 0 1 -4.48913,-4.48913 4.4890766,4.4890766 0 0 1 4.48913,-4.488615 4.4890766,4.4890766 0 0 1 4.48914,4.488615 4.4890766,4.4890766 0 0 1 -4.48914,4.48913 z m 0,-2.130618 a 2.3583918,2.3583918 0 0 0 2.35851,-2.358512 2.3583918,2.3583918 0 0 0 -2.35851,-2.357996 2.3583918,2.3583918 0 0 0 -2.35851,2.357996 2.3583918,2.3583918 0 0 0 2.35851,2.358512 z" />
        <path
           style="fill:none;fill-opacity:1;stroke:#043052;stroke-width:3.407;stroke-linecap:round;stroke-linejoin:miter;stroke-dasharray:none;stroke-opacity:1;paint-order:stroke fill markers"
           d="m 123.04564,69.877616 10.9611,10.57052 -10.77401,10.897904"
           id="path5"
           sodipodi:nodetypes="ccc" />
      </g>
    </g>
    <path
       d="m 500.97682,151.30015 h 2.35537 v 7.85122 q 0,3.14048 -3.14049,3.14048 h -1.57024 v -2.35536 h 1.57024 q 0.78512,0 0.78512,-0.78512 z m 3.92561,10.9917 v -2.35536 h 4.71073 q 0.78513,0 0.78513,-0.78512 v -0.39256 q 0,-0.78513 -0.78513,-0.78513 h -1.57024 q -3.14049,0 -3.14049,-3.14048 v -0.39257 q 0,-3.14048 3.14049,-3.14048 h 4.71073 v 2.35536 h -4.71073 q -0.78512,0 -0.78512,0.78512 v 0.39257 q 0,0.78512 0.78512,0.78512 h 1.57024 q 3.14049,0 3.14049,3.14049 v 0.39256 q 0,3.14048 -3.14049,3.14048 z m 17.66525,-3.14048 q 0,3.14048 -3.14049,3.14048 h -1.9628 q -3.14049,0 -3.14049,-3.14048 v -4.71074 q 0,-3.14048 3.14049,-3.14048 h 1.9628 q 3.14049,0 3.14049,3.14048 z m -5.88842,0 q 0,0.78512 0.78513,0.78512 h 1.9628 q 0.78512,0 0.78512,-0.78512 v -4.71074 q 0,-0.78512 -0.78512,-0.78512 h -1.9628 q -0.78513,0 -0.78513,0.78512 z m 9.81403,-7.85122 3.92561,6.67353 v -6.67353 h 2.35537 v 10.9917 h -2.35537 l -3.92561,-6.67353 v 6.67353 h -2.35537 v -10.9917 z m 14.52476,7.85122 q 0,0.78512 0.78512,0.78512 h 1.17768 v 2.35536 h -1.17768 q -3.14049,0 -3.14049,-3.14048 V 156.796 H 537.485 v -2.35537 h 1.17768 v -2.35536 l 2.35537,-0.78512 v 3.14048 h 1.9628 v 2.35537 h -1.9628 z m 10.59915,0 q 0,3.14048 -3.14049,3.14048 h -0.78512 q -3.14049,0 -3.14049,-3.14048 v -1.57025 q 0,-3.14049 3.14049,-3.14049 h 0.78512 q 3.14049,0 3.14049,3.14049 z m -4.71074,0 q 0,0.78512 0.78513,0.78512 h 0.78512 q 0.78512,0 0.78512,-0.78512 v -1.57025 q 0,-0.70661 -0.78512,-0.70661 h -0.78512 q -0.78513,0 -0.78513,0.70661 z m 11.77683,0.78512 h 4.71074 v 2.35536 h -7.0661 v -10.9917 h 2.35536 z m 8.63634,-8.63634 v 10.9917 h -2.35536 v -10.9917 z m 3.92562,0 3.92561,6.67353 v -6.67353 h 2.35536 v 10.9917 h -2.35536 l -3.92561,-6.67353 v 6.67353 h -2.35537 v -10.9917 z m 12.48344,10.9917 h -1.49173 q -3.14049,0 -3.14049,-3.14048 v -4.71074 q 0,-3.14048 3.14049,-3.14048 h 1.9628 q 3.14049,0 3.14049,3.14048 v 4.71074 q 0,2.35536 -1.9628,3.14048 l 0.54958,1.57025 h -1.57024 z m 0.15702,-3.92561 0.54959,1.57025 q 0.54959,-0.15703 0.54959,-0.78512 v -4.71074 q 0,-0.78512 -0.78513,-0.78512 h -1.9628 q -0.78512,0 -0.78512,0.78512 v 4.71074 q 0,0.78512 0.78512,0.78512 h 0.6281 l -0.54959,-1.57025 z"
       id="text2"
       style="font-weight:bold;font-size:16.0793px;font-family:'Aero Matics';-inkscape-font-specification:'Aero Matics Bold';fill:#043052;stroke:#b5cfe2;stroke-width:0.54502;stroke-linejoin:round"
       aria-label="JSON to LINQ" />
  </g>
</svg>
